<?xml version="1.0" encoding="UTF-8" standalone="no"?>
<svg
   xmlns:dc="http://purl.org/dc/elements/1.1/"
   xmlns:cc="http://creativecommons.org/ns#"
   xmlns:rdf="http://www.w3.org/1999/02/22-rdf-syntax-ns#"
   xmlns:svg="http://www.w3.org/2000/svg"
   xmlns="http://www.w3.org/2000/svg"
   viewBox="0 0 1066.6667 1066.6667"
   height="1066.6667"
   width="1066.6667"
   xml:space="preserve"
   id="svg2"
   version="1.1"><metadata
     id="metadata8"><rdf:RDF><cc:Work
         rdf:about=""><dc:format>image/svg+xml</dc:format><dc:type
           rdf:resource="http://purl.org/dc/dcmitype/StillImage" /></cc:Work></rdf:RDF></metadata><defs
     id="defs6"><clipPath
       id="clipPath110"
       clipPathUnits="userSpaceOnUse"><path
         id="path108"
         d="M 0,800 H 800 V 0 H 0 Z" /></clipPath></defs><g
     transform="matrix(1.3333333,0,0,-1.3333333,0,1066.6667)"
     id="g10"><g
       transform="translate(346.6899,408.4624)"
       id="g12"><path
         id="path14"
         style="fill:#991b1f;fill-opacity:1;fill-rule:nonzero;stroke:none"
         d="m 0,0 h -33.273 l -6.833,-27.333 H 0 13.894 L 20.727,0 Z" /></g><g
       transform="translate(346.6899,408.4624)"
       id="g16"><path
         id="path18"
         style="fill:none;stroke:#991b1f;stroke-width:1;stroke-linecap:butt;stroke-linejoin:miter;stroke-miterlimit:10;stroke-dasharray:none;stroke-opacity:1"
         d="m 0,0 h -33.273 l -6.833,-27.333 H 0 13.894 L 20.727,0 Z" /></g><g
       transform="translate(213.7612,408.4624)"
       id="g20"><path
         id="path22"
         style="fill:#991b1f;fill-opacity:1;fill-rule:nonzero;stroke:none"
         d="m 0,0 h -8.345 l -6.833,-27.333 H 0 38.822 L 45.655,0 Z" /></g><g
       transform="translate(213.7612,408.4624)"
       id="g24"><path
         id="path26"
         style="fill:none;stroke:#991b1f;stroke-width:1;stroke-linecap:butt;stroke-linejoin:miter;stroke-miterlimit:10;stroke-dasharray:none;stroke-opacity:1"
         d="m 0,0 h -8.345 l -6.833,-27.333 H 0 38.822 L 45.655,0 Z" /></g><g
       transform="translate(108.3638,408.4624)"
       id="g28"><path
         id="path30"
         style="fill:#991b1f;fill-opacity:1;fill-rule:nonzero;stroke:none"
         d="M 0,0 V -27.333 H 36.22 L 43.053,0 Z" /></g><g
       transform="translate(108.3638,408.4624)"
       id="g32"><path
         id="path34"
         style="fill:none;stroke:#991b1f;stroke-width:1;stroke-linecap:butt;stroke-linejoin:miter;stroke-miterlimit:10;stroke-dasharray:none;stroke-opacity:1"
         d="M 0,0 V -27.333 H 36.22 L 43.053,0 Z" /></g><g
       transform="translate(463.4165,408.4624)"
       id="g36"><path
         id="path38"
         style="fill:#991b1f;fill-opacity:1;fill-rule:nonzero;stroke:none"
         d="m 0,0 h -42 l -6.833,-27.333 h 54 L 12,0 Z" /></g><g
       transform="translate(463.4165,408.4624)"
       id="g40"><path
         id="path42"
         style="fill:none;stroke:#991b1f;stroke-width:1;stroke-linecap:butt;stroke-linejoin:miter;stroke-miterlimit:10;stroke-dasharray:none;stroke-opacity:1"
         d="m 0,0 h -42 l -6.833,-27.333 h 54 L 12,0 Z" /></g><g
       transform="translate(676.3638,408.4624)"
       id="g44"><path
         id="path46"
         style="fill:#991b1f;fill-opacity:1;fill-rule:nonzero;stroke:none"
         d="M 0,0 H -38.947 L -45.78,-27.333 H 0 Z" /></g><g
       transform="translate(676.3638,408.4624)"
       id="g48"><path
         id="path50"
         style="fill:none;stroke:#991b1f;stroke-width:1;stroke-linecap:butt;stroke-linejoin:miter;stroke-miterlimit:10;stroke-dasharray:none;stroke-opacity:1"
         d="M 0,0 H -38.947 L -45.78,-27.333 H 0 Z" /></g><g
       transform="translate(538.334,408.4624)"
       id="g52"><path
         id="path54"
         style="fill:#991b1f;fill-opacity:1;fill-rule:nonzero;stroke:none"
         d="m 0,0 h -8.917 l -6.833,-27.333 h 54 L 45.083,0 Z" /></g><g
       transform="translate(538.334,408.4624)"
       id="g56"><path
         id="path58"
         style="fill:none;stroke:#991b1f;stroke-width:1;stroke-linecap:butt;stroke-linejoin:miter;stroke-miterlimit:10;stroke-dasharray:none;stroke-opacity:1"
         d="m 0,0 h -8.917 l -6.833,-27.333 h 54 L 45.083,0 Z" /></g><g
       transform="translate(151.4165,408.4624)"
       id="g60"><path
         id="path62"
         style="fill:#ffffff;fill-opacity:1;fill-rule:nonzero;stroke:none"
         d="m 0,0 -6.833,-27.333 h 54 L 54,0 Z" /></g><g
       transform="translate(151.4165,408.4624)"
       id="g64"><path
         id="path66"
         style="fill:none;stroke:#991b1f;stroke-width:1;stroke-linecap:butt;stroke-linejoin:miter;stroke-miterlimit:10;stroke-dasharray:none;stroke-opacity:1"
         d="m 0,0 -6.833,-27.333 h 54 L 54,0 Z" /></g><g
       transform="translate(272.0732,408.4624)"
       id="g68"><path
         id="path70"
         style="fill:#ffffff;fill-opacity:1;fill-rule:nonzero;stroke:none"
         d="M 0,0 H -12.657 L -19.49,-27.333 H 0 34.51 L 41.343,0 Z" /></g><g
       transform="translate(272.0732,408.4624)"
       id="g72"><path
         id="path74"
         style="fill:none;stroke:#991b1f;stroke-width:1;stroke-linecap:butt;stroke-linejoin:miter;stroke-miterlimit:10;stroke-dasharray:none;stroke-opacity:1"
         d="M 0,0 H -12.657 L -19.49,-27.333 H 0 34.51 L 41.343,0 Z" /></g><g
       transform="translate(405.002,408.4624)"
       id="g76"><path
         id="path78"
         style="fill:#ffffff;fill-opacity:1;fill-rule:nonzero;stroke:none"
         d="m 0,0 h -37.585 l -6.833,-27.333 H 0 9.582 L 16.415,0 Z" /></g><g
       transform="translate(405.002,408.4624)"
       id="g80"><path
         id="path82"
         style="fill:none;stroke:#991b1f;stroke-width:1;stroke-linecap:butt;stroke-linejoin:miter;stroke-miterlimit:10;stroke-dasharray:none;stroke-opacity:1"
         d="m 0,0 h -37.585 l -6.833,-27.333 H 0 9.582 L 16.415,0 Z" /></g><g
       transform="translate(475.4165,408.4624)"
       id="g84"><path
         id="path86"
         style="fill:#ffffff;fill-opacity:1;fill-rule:nonzero;stroke:none"
         d="M 0,0 -6.833,-27.333 H 3.204 47.167 L 54,0 Z" /></g><g
       transform="translate(475.4165,408.4624)"
       id="g88"><path
         id="path90"
         style="fill:none;stroke:#991b1f;stroke-width:1;stroke-linecap:butt;stroke-linejoin:miter;stroke-miterlimit:10;stroke-dasharray:none;stroke-opacity:1"
         d="M 0,0 -6.833,-27.333 H 3.204 47.167 L 54,0 Z" /></g><g
       transform="translate(583.4165,408.4624)"
       id="g92"><path
         id="path94"
         style="fill:#ffffff;fill-opacity:1;fill-rule:nonzero;stroke:none"
         d="m 0,0 -6.833,-27.333 h 34.5 19.5 L 54,0 Z" /></g><g
       transform="translate(583.4165,408.4624)"
       id="g96"><path
         id="path98"
         style="fill:none;stroke:#991b1f;stroke-width:1;stroke-linecap:butt;stroke-linejoin:miter;stroke-miterlimit:10;stroke-dasharray:none;stroke-opacity:1"
         d="m 0,0 -6.833,-27.333 h 34.5 19.5 L 54,0 Z" /></g><g
       transform="translate(249.3867,416.1289)"
       id="g100"><path
         id="path102"
         style="fill:#991b1f;fill-opacity:1;fill-rule:nonzero;stroke:none"
         d="M 0,0 -3.443,-6.887 -6.887,0 l -3.5,-7 -3.5,7 -3.5,-7 -3.5,7 -4,-8 h 7 1 6 1 H -4 -2.887 4 Z" /></g><g
       id="g104"><g
         clip-path="url(#clipPath110)"
         id="g106"><g
           transform="translate(635.6875,277.0176)"
           id="g112"><path
             id="path114"
             style="fill:#5d31c9;fill-opacity:1;fill-rule:nonzero;stroke:none"
             d="m 0,0 c 1.222,2.124 2.393,4.369 3.589,6.761 5.478,10.964 8.224,23.796 8.224,38.501 0,2.729 -0.099,5.355 -0.285,7.888 C 3.91,44.168 -3.616,31.445 -3.616,16.207 -3.616,10.054 -2.271,4.681 0,0" /></g><g
           transform="translate(539.5,250.7954)"
           id="g116"><path
             id="path118"
             style="fill:#5d31c9;fill-opacity:1;fill-rule:nonzero;stroke:none"
             d="M 0,0 C 17.572,0 30.241,11.043 40.403,49.845 33.448,45.88 23.798,44.946 15.816,44.946 h -67.167 c -0.045,-0.832 -0.078,-1.669 -0.078,-2.517 C -51.429,11.572 -18,0 0,0" /></g><g
           transform="translate(527.1372,357.042)"
           id="g120"><path
             id="path122"
             style="fill:#5d31c9;fill-opacity:1;fill-rule:nonzero;stroke:none"
             d="m 0,0 c 10.71,-3.24 20.68,-6.482 29.902,-9.716 9.218,-3.242 16.881,-7.167 22.99,-11.775 5.377,-4.064 8.384,-9.431 9.025,-16.1 13.69,15.708 39.014,21.627 56.154,23.854 -1.495,6.088 -3.72,11.417 -6.679,15.981 -4.463,6.875 -9.794,12.711 -15.988,17.509 H -39.33 c 2.938,-2.451 6.075,-4.679 9.425,-6.67 C -20.688,7.6 -10.718,3.237 0,0" /></g><g
           transform="translate(217.231,412.7954)"
           id="g124"><path
             id="path126"
             style="fill:#5d31c9;fill-opacity:1;fill-rule:nonzero;stroke:none"
             d="m 0,0 h 8.269 l 3,6 3,-6 h 1 l 3,6 3,-6 h 1 l 3,6 3,-6 h 0.887 l 3,6 3,-6 h 23.156 v 42.183 h 74.617 V 0 h 58.312 V 93.767 H -75.507 V 42.183 l 75.507,0 z" /></g><g
           transform="translate(374.9287,344.6528)"
           id="g128"><path
             id="path130"
             style="fill:#5d31c9;fill-opacity:1;fill-rule:nonzero;stroke:none"
             d="m 0,0 c 0,0 -15.778,-10.525 -24.769,-27.806 v -44.133 c 10.478,-15.631 32.085,-21.918 45.34,-21.918 16.81,0 29.134,10.1 39.068,44.945 H 33.543 V 32.143 H -24.769 V -2.415 C -10.873,-0.001 0,0 0,0" /></g><g
           transform="translate(662.9287,344.6528)"
           id="g132"><path
             id="path134"
             style="fill:#93c7ec;fill-opacity:1;fill-rule:nonzero;stroke:none"
             d="m 0,0 c 0,0 -7.368,-0.002 -17.721,-1.348 0.993,-4.042 1.66,-8.423 2.008,-13.137 C -7.905,-5.278 0,0 0,0" /></g><g
           transform="translate(488.1494,295.7412)"
           id="g136"><path
             id="path138"
             style="fill:#93c7ec;fill-opacity:1;fill-rule:nonzero;stroke:none"
             d="m 0,0 c 1.604,29.452 30.779,48.912 30.779,48.912 0,0 -72,0 -82.285,-41.143 C -52.187,5.049 -52.878,2.467 -53.582,0 h 46.804 z" /></g><g
           transform="translate(635.6875,277.0176)"
           id="g140"><path
             id="path142"
             style="fill:#93c7ec;fill-opacity:1;fill-rule:nonzero;stroke:none"
             d="m 0,0 c -3.51,-6.099 -7.455,-11.185 -13.737,-15.788 -7.474,-5.477 -15.898,-9.487 -24.751,-12.176 -17.402,-5.284 -37.739,-6.848 -55.775,-7.14 -25.306,-0.41 -48.722,0.41 -74.029,0 h -117.236 v 30.8 c -3.75,5.595 -6.088,12.377 -6.088,20.511 0,8.789 2.507,16.74 6.088,23.622 V 65.22 c -21.868,-3.798 -51.227,-13.572 -57.516,-38.728 -4.995,-19.978 -10.599,-32.969 -17.101,-41.063 v -20.533 h -58.312 v 19.731 c -9.733,6.784 -17.159,17.039 -17.159,31.58 0,16.585 8.913,30.191 17.159,39.237 v 11.319 c -21.412,-2.276 -61.147,-10.506 -68.587,-40.271 -10.287,-41.142 -23.143,-52.714 -41.143,-52.714 v -9 h 576 v 9 C 33.401,-26.222 9.117,-18.792 0,0" /></g><g
           transform="translate(589.188,316.6729)"
           id="g144"><path
             id="path146"
             style="fill:#93c7ec;fill-opacity:1;fill-rule:nonzero;stroke:none"
             d="m 0,0 c 0,0.951 -0.046,1.875 -0.133,2.778 -3.9,-4.474 -6.861,-9.736 -8.412,-15.941 -0.245,-0.978 -0.492,-1.924 -0.74,-2.87 C -3.807,-12.911 0,-7.91 0,0" /></g><g
           transform="translate(251.5,250.7954)"
           id="g148"><path
             id="path150"
             style="fill:#5569aa;fill-opacity:1;fill-rule:nonzero;stroke:none"
             d="M 0,0 C -9.518,0 -23.347,3.239 -34.269,10.85 V -8.881 H 24.042 V 11.651 C 17.155,3.077 9.259,0 0,0" /></g><g
           transform="translate(374.9287,344.6528)"
           id="g152"><path
             id="path154"
             style="fill:#5569aa;fill-opacity:1;fill-rule:nonzero;stroke:none"
             d="M 0,0 C 0,0 -10.873,-0.001 -24.769,-2.415 V -27.806 C -15.778,-10.525 0,0 0,0" /></g><g
           transform="translate(230.9287,344.6528)"
           id="g156"><path
             id="path158"
             style="fill:#5569aa;fill-opacity:1;fill-rule:nonzero;stroke:none"
             d="M 0,0 C 0,0 -5.513,-0.002 -13.698,-0.872 V -12.191 C -6.602,-4.408 0,0 0,0" /></g><g
           transform="translate(589.0547,319.4512)"
           id="g160"><path
             id="path162"
             style="fill:#5569aa;fill-opacity:1;fill-rule:nonzero;stroke:none"
             d="m 0,0 c 0.087,-0.903 0.133,-1.828 0.133,-2.778 0,-7.91 -3.807,-12.911 -9.284,-16.033 -10.162,-38.801 -22.832,-49.845 -40.404,-49.845 -18,0 -51.428,11.572 -51.428,42.429 0,0.848 0.032,1.685 0.078,2.517 h -6.779 -46.803 c -9.934,-34.845 -22.258,-44.946 -39.068,-44.946 -13.255,0 -34.862,6.288 -45.34,21.919 v -30.8 h 117.236 c 25.307,0.41 48.722,-0.41 74.029,0 18.036,0.292 38.373,1.855 55.775,7.14 8.853,2.688 17.277,6.699 24.751,12.175 6.282,4.604 10.227,9.689 13.737,15.788 -2.271,4.681 -3.616,10.055 -3.616,16.207 0,15.238 7.525,27.961 15.144,36.944 -0.348,4.714 -1.015,9.095 -2.008,13.137 C 39.013,21.626 13.69,15.708 0,0" /></g><g
           transform="translate(252.4282,410.7954)"
           id="g164"><path
             id="path166"
             style="fill:#991b1f;fill-opacity:1;fill-rule:nonzero;stroke:none"
             d="M 0,0 -1,2 -3.042,6.083 -5.083,2 -6.083,0 -6.485,-0.803 -6.887,0 -7.887,2 -9.928,6.083 -11.97,2 l -1,-2 -0.458,-0.917 -0.459,0.917 -1,2 -2.041,4.083 L -18.97,2 l -1,-2 -0.458,-0.917 -0.459,0.917 -1,2 -2.041,4.083 L -25.97,2 l -1,-2 -0.958,-1.917 h 7 1 6 1 5.886 1.114 6.886 z" /></g><g
           transform="translate(251.8452,376.7954)"
           id="g168"><path
             id="path170"
             style="fill:#5d31c9;fill-opacity:1;fill-rule:nonzero;stroke:none"
             d="M 0,0 -2.458,-4.917 -4.917,0 h -1.97 L -9.345,-4.917 -11.804,0 h -2.083 L -16.345,-4.917 -18.804,0 h -2.083 L -23.345,-4.917 -25.804,0 h -8.81 v -33.015 c 8.185,0.87 13.697,0.872 13.697,0.872 0,0 -6.602,-4.408 -13.697,-12.191 v -70.816 c 10.922,-7.611 24.751,-10.85 34.269,-10.85 9.259,0 17.155,3.077 24.042,11.651 L 23.697,0 Z" /></g><g
           transform="translate(246.5,382.1289)"
           id="g172"><path
             id="path174"
             style="fill:#991b1f;fill-opacity:1;fill-rule:nonzero;stroke:none"
             d="M 0,0 H -1.113 -7 h -1 -6 -1 -7 l 1.125,-2.25 1.542,-3.083 L -18,-8 l 1.333,2.667 1.542,3.083 0.625,1.25 0.625,-1.25 1.542,-3.083 L -11,-8 -9.667,-5.333 -8.125,-2.25 -7.5,-1 -6.875,-2.25 -5.333,-5.333 -4,-8 l 1.333,2.667 1.542,3.083 0.568,1.137 L 0.012,-2.25 1.553,-5.333 2.887,-8 4.22,-5.333 5.762,-2.25 6.887,0 Z" /></g><g
           transform="translate(587.0283,526.2773)"
           id="g176"><path
             id="path178"
             style="fill:#5d31c9;fill-opacity:1;fill-rule:nonzero;stroke:none"
             d="m 0,0 c 13.703,-3.22 26.129,-10.532 37.022,-19.373 8.743,-7.096 16.528,-15.614 23.45,-25.448 v -19.006 c -12.976,0.066 -25.952,0.128 -38.928,0.189 -3.337,0.016 -6.708,-0.105 -10.041,0.047 -2.848,0.131 -5.034,1.407 -7.792,2.121 -11.335,2.937 -23.969,3.701 -34.72,-1.149 -9.951,-4.489 -20.126,-9.652 -26.639,-18.772 -2.494,-3.493 -3.739,-7.729 -3.739,-12.71 0,-7.978 2.991,-14.082 8.971,-18.316 0.511,-0.361 1.048,-0.712 1.581,-1.065 h -69.954 c -0.764,4.484 -1.153,9.319 -1.153,14.521 0,9.456 1.265,18.123 3.75,26.032 -3.886,0.149 -7.757,0.544 -11.579,1.245 -2.349,0.431 -10.729,0.283 -12.345,1.776 -4.474,4.133 2.407,6.22 5.419,6.51 4.597,0.44 9.076,2.076 12.876,4.702 2.667,1.842 5.217,4.95 4.17,8.018 -9.473,1.336 -18.891,-2.458 -27.369,-6.891 -10.335,-5.406 -0.173,16.042 1.493,19.96 3.223,7.582 5.683,14.192 12.452,19.36 11.229,8.573 22.664,17.643 36.701,20.357 5.503,1.065 11.058,1.923 16.42,3.509 5.743,1.699 10.691,5.427 15.158,9.295 5.88,5.092 11.545,10.797 18.801,13.6 3.009,1.162 6.2,1.781 9.391,2.253 6.73,0.994 13.555,1.352 20.352,1.068 2.379,-0.1 6.598,-0.642 2.551,-2.683 -2.56,-1.292 -4.877,-3.063 -6.794,-5.194 -2.778,-3.087 -4.75,-7.413 -3.496,-11.372 0.665,-2.099 2.154,-3.834 3.741,-5.361 C -14.851,2.026 -7.046,1.656 0,0" /></g></g></g></g></svg>